<svg id="Group_1045" data-name="Group 1045" xmlns="http://www.w3.org/2000/svg" width="256" height="256" viewBox="0 0 256 256">
  <circle id="Ellipse_175" data-name="Ellipse 175" cx="128" cy="128" r="128" fill="#3064f9"/>
  <g id="Group_1041" data-name="Group 1041" transform="translate(29.882 80.164)">
    <g id="Group_1039" data-name="Group 1039" transform="translate(0 0)">
      <path id="Path_613" data-name="Path 613" d="M1422.936,843.1h-19.824l-13.691-32.688-13.1-31.293-11.468-27.383a2.761,2.761,0,0,1,2.545-3.826h19.5a3.734,3.734,0,0,1,3.45,2.3l.2.483c.007.015.015.023.015.031l.008.008,36.106,86.22c.053.123.107.238.153.353A4.205,4.205,0,0,1,1422.936,843.1Z" transform="translate(-1324.508 -747.915)" fill="#bdd1ff"/>
      <path id="Path_614" data-name="Path 614" d="M1378.344,750.728c0-.008-.008-.015-.015-.031-.1-.176-.559-.9-1.25-.866-.767.023-1.135,1-1.135,1L1364.1,779.123l-26.217,62.6a2.239,2.239,0,0,1-2.07,1.38h-21.28a2.248,2.248,0,0,1-2.07-3.112l37.7-90.015a3.36,3.36,0,0,1,3.1-2.062h21.419a3.734,3.734,0,0,1,3.449,2.3Z" transform="translate(-1312.29 -747.915)" fill="#fff"/>
      <path id="Path_615" data-name="Path 615" d="M1424.331,862.133h-20.705a8.843,8.843,0,0,1-6.324-2.653l-26.043-26.265a2.213,2.213,0,0,1,1.572-3.771h22.961a6.344,6.344,0,0,1,4.531,1.9l24.713,25.092,1.412,1.433c.368.368,2.246,1.832,1.625-1.886.054.123.107.238.153.353A4.205,4.205,0,0,1,1424.331,862.133Z" transform="translate(-1325.903 -766.944)" fill="#fff"/>
      <path id="Path_616" data-name="Path 616" d="M1497.486,843.3a2.453,2.453,0,0,1-.759.115h-20.414a1.024,1.024,0,0,1-.153-.008,1.692,1.692,0,0,1-.345-.038.211.211,0,0,1-.069-.008,2.27,2.27,0,0,1-.744-.268.885.885,0,0,1-.184-.107,2.671,2.671,0,0,1-.368-.291.823.823,0,0,1-.138-.146.9.9,0,0,1-.115-.138,2.224,2.224,0,0,1-.337-.567l-8.931-21.319-3.4-8.118-11.706-28.226v-.008l.038-.092.008.008.031.069.054-.13,1.924-4.592,10.97-26.2-1.234-2.944a3.353,3.353,0,0,0-.675-1.035,3.241,3.241,0,0,1,.682,1.035l1.234,2.944.192.46,8.54,20.407,2.553,6.11.452,1.089,1.227,2.936,9.643,23.036,5.542,13.255,8.088,19.334A2.562,2.562,0,0,1,1497.486,843.3Z" transform="translate(-1344.392 -748.228)" fill="#bdd1ff"/>
      <path id="Path_617" data-name="Path 617" d="M1462.842,752.921l-10.97,26.2-1.924,4.592-.054.138-.038-.084-.038.092-.061-.146,1.924-4.592,10.97-26.2-1.234-2.944a3.36,3.36,0,0,0-3.1-2.062h.192a3.36,3.36,0,0,1,3.1,2.062Z" transform="translate(-1344.376 -747.915)" fill="#3064f9"/>
      <path id="Path_618" data-name="Path 618" d="M1458.942,752.921l-10.97,26.2-1.924,4.592-13-31.369.989-2.369a3.36,3.36,0,0,1,3.1-2.062h17.478a3.36,3.36,0,0,1,3.1,2.062Z" transform="translate(-1340.476 -747.915)" fill="#3064f9"/>
      <path id="Path_619" data-name="Path 619" d="M1455.726,752.921l.909,2.177s-.385-.695-1-.659c-.643.038-1,1.106-1,1.106l-9.871,23.579-1.924,4.592-.053.138-.008-.008-.031-.069-.038.084-.007.008-.077.184L1432.3,808.707l-13.032-31.155,10.318-24.631.245-.575.989-2.369a3.36,3.36,0,0,1,3.1-2.062h17.478a3.354,3.354,0,0,1,2.415,1.027,3.236,3.236,0,0,1,.682,1.035Z" transform="translate(-1337.259 -747.915)" fill="#fff"/>
      <path id="Path_620" data-name="Path 620" d="M1495.057,747.916c-7.852,0-15.388-.139-22.56,3.923v0l.644,1.541,8.54,20.407c.046-.084.1-.169.146-.261.023-.046.046-.092.069-.13-.414.307,1.165-2.131,0,0a1.5,1.5,0,0,0,.283-.284c.077-.084.33-.33.56-.567-.276.184-.353.2.115-.2.659-.56.314-.215-.1.184.452-.284,1.388-.974,1.4-.974a3.35,3.35,0,0,1,.575-.284c-.107.031-.222.061-.33.1.169-.061.307-.107.406-.138a.125.125,0,0,0-.054.031,15.722,15.722,0,0,1,1.564-.429,14.053,14.053,0,0,0,1.433-.023c.951-.008,1.894,0,2.844,0H1526.5a2.034,2.034,0,0,0,1.887-2.793l-7.565-18.83a2.034,2.034,0,0,0-1.887-1.276Zm-8.739,22.914a1.7,1.7,0,0,1,.391-.084C1486.578,770.768,1486.448,770.8,1486.318,770.83Z" transform="translate(-1349.684 -747.915)" fill="#fff"/>
      <path id="Path_621" data-name="Path 621" d="M1546.421,837.764a28.778,28.778,0,0,1-11.675,12.48c-4.569,2.568-13.231,3.45-17.478,3.733a3.428,3.428,0,0,1-3.4-2.1l-8.67-20.66h11.553c.943,0,1.894.008,2.836,0,.161,0,.36-.008.552-.015.261-.015.514-.023.682-.023h.031c.107,0,.168,0,.168.015.115-.023.23-.054.345-.084a6.619,6.619,0,0,0,1.572-12.588c-.008,0-.008,0-.008-.008-.069-.054-.644-.238-.721-.268a7.409,7.409,0,0,0-1.479-.291s-.207,0-.46.008h-.238c-.859.023-1.725,0-2.591,0h-17.785l-9.582-22.883c.544,0,1.135,0,1.326-.008.866-.023,1.725,0,2.591,0h22.216a51.373,51.373,0,0,1,10.1.675,29.785,29.785,0,0,1,18.965,13.377C1550.837,817.863,1550.806,828.864,1546.421,837.764Z" transform="translate(-1353.787 -758.919)" fill="#bdd1ff"/>
      <path id="Path_622" data-name="Path 622" d="M1546.421,837.764c-2.913-18.943-25.62-19.794-25.689-19.809,0,0-.207,0-.46.008h-.238c-.859.023-1.725,0-2.591,0h-17.785l-9.582-22.883c.544,0,1.135,0,1.326-.008.866-.023,1.725,0,2.591,0h22.216a51.373,51.373,0,0,1,10.1.675,29.785,29.785,0,0,1,18.965,13.377C1550.837,817.863,1550.806,828.864,1546.421,837.764Z" transform="translate(-1353.787 -758.919)" fill="#fff"/>
    </g>
  </g>
</svg>
